<svg xmlns="http://www.w3.org/2000/svg" width="24" height="24" viewBox="0 0 24 24"><defs><style>.a{fill:#cc9e1f;stroke:rgba(0,0,0,0);stroke-miterlimit:10;}.b{fill:none;}</style></defs><path class="a" d="M36.329-129.563,32.779-134H30.5a1.5,1.5,0,0,1-1.5-1.5v-3a1.5,1.5,0,0,1,1.5-1.5h2.279l3.55-4.437A1.5,1.5,0,0,1,38-144.915a1.5,1.5,0,0,1,1,1.416v13a1.5,1.5,0,0,1-1,1.416,1.5,1.5,0,0,1-.5.085A1.5,1.5,0,0,1,36.329-129.563ZM46-131.5v-11a1.5,1.5,0,0,1,1.5-1.5,1.5,1.5,0,0,1,1.5,1.5v11a1.5,1.5,0,0,1-1.5,1.5A1.5,1.5,0,0,1,46-131.5Zm-5-2v-7a1.5,1.5,0,0,1,1.5-1.5,1.5,1.5,0,0,1,1.5,1.5v7a1.5,1.5,0,0,1-1.5,1.5A1.5,1.5,0,0,1,41-133.5Z" transform="translate(-27 149)"/><rect class="b" width="24" height="24"/></svg>