<svg xmlns="http://www.w3.org/2000/svg" width="24" height="24" viewBox="0 0 24 24"><defs><style>.a{fill:#cc9e1f;}.b{fill:none;}</style></defs><path class="a" d="M40.7,38.587,39,31.91a.8.8,0,0,0-1.412-.334l-1.538,1.955L32.3,30.265V26.447H35a.8.8,0,0,0,.611-1.317l-4.2-5.462a.8.8,0,0,0-1.221,0l-4.2,5.462a.8.8,0,0,0,.611,1.317h2.7v3.821l-3.735,3.279-1.55-1.97a.8.8,0,0,0-1.413.334l-1.7,6.676a.8.8,0,0,0,.755.96l6.888-.077a.8.8,0,0,0,.657-1.294l-1.784-2.268L30.8,32.94l3.386,2.953-1.8,2.283a.8.8,0,0,0,.657,1.294l6.888.077A.8.8,0,0,0,40.7,38.587Z" transform="translate(-18.802 -17.447)"/><rect class="b" width="24" height="24"/></svg>