<svg xmlns="http://www.w3.org/2000/svg" width="54" height="54" viewBox="0 0 54 54"><defs><style>.a{fill:#667178;}.b{fill:none;}</style></defs><path class="a" d="M52.75,31.875,46,45.375h3.375c0,2.905-3.617,4.451-8.726,6.318-.86.314-1.707.625-2.524.951V28.5a3.37,3.37,0,0,0-.111-.844,6.75,6.75,0,1,0-6.529,0,3.37,3.37,0,0,0-.111.844V52.643c-.817-.326-1.664-.637-2.524-.951-5.11-1.867-8.726-3.412-8.726-6.318H23.5l-6.75-13.5L10,45.375h3.375c0,3.588,1.689,6.577,5.02,8.882a36.085,36.085,0,0,0,8.14,3.776c1.745.637,4.655,1.7,5.219,2.4a3.375,3.375,0,0,0,5.991,0c.564-.7,3.474-1.759,5.219-2.4a36.086,36.086,0,0,0,8.14-3.776c3.331-2.305,5.02-5.294,5.02-8.882H59.5Z" transform="translate(-7.75 -11.625)"/><rect class="b" width="54" height="54"/></svg>