<svg xmlns="http://www.w3.org/2000/svg" width="24" height="24" viewBox="0 0 24 24"><defs><style>.a{fill:#cc9e1f;}.b{fill:none;}</style></defs><path class="a" d="M46.439-183.44,39-190.879v4.378a1.5,1.5,0,0,1-1,1.415,1.5,1.5,0,0,1-.5.085,1.5,1.5,0,0,1-1.171-.562L32.78-190H30.5a1.5,1.5,0,0,1-1.5-1.5v-3a1.5,1.5,0,0,1,1.5-1.5H32.78l.488-.611L29.44-200.44a1.5,1.5,0,0,1,0-2.12,1.5,1.5,0,0,1,2.12,0l17,17a1.5,1.5,0,0,1,0,2.12A1.489,1.489,0,0,1,47.5-183,1.5,1.5,0,0,1,46.439-183.44ZM46-191.121V-198.5a1.5,1.5,0,0,1,1.5-1.5,1.5,1.5,0,0,1,1.5,1.5v10.379Zm-5-5v-.379a1.5,1.5,0,0,1,1.5-1.5,1.5,1.5,0,0,1,1.5,1.5v3.379Zm-4.5-4.5a1.5,1.5,0,0,1,1.494-.3,1.5,1.5,0,0,1,1,1.415v1.38Z" transform="translate(-27 205.001)"/><rect class="b" width="24" height="24"/></svg>