<svg xmlns="http://www.w3.org/2000/svg" width="24" height="24" viewBox="0 0 24 24"><defs><style>.a{fill:#cc9e1f;}.b{fill:none;}</style></defs><g transform="translate(2 2)"><path class="a" d="M21.5,26.5H32.938v2.7a.8.8,0,0,0,1.317.611l5.461-4.2a.8.8,0,0,0,0-1.221l-5.461-4.2a.8.8,0,0,0-1.317.611v2.7H21.5a1.5,1.5,0,0,0,0,3Z" transform="translate(-20 -20)"/><path class="a" d="M39.954,140.542a1.5,1.5,0,0,0-.192-.235q-.124-.124-.25-.243l-.1-.092c-.051-.048-.1-.1-.155-.143l-.123-.109L39,139.6l-.133-.112-.132-.11-.134-.107-.139-.11-.127-.1-.155-.116-.113-.082-.184-.13-.086-.059q-.115-.078-.231-.154l-.042-.027a13.508,13.508,0,0,0-14.593,0l-.042.027q-.116.076-.231.154l-.086.059-.184.13-.113.082-.155.116-.128.1-.139.11-.134.107-.132.11-.133.112-.135.119-.123.109c-.052.047-.1.1-.155.143l-.1.092q-.126.12-.25.243a1.5,1.5,0,0,0,0,2.121l1.854,1.854a1.5,1.5,0,0,0,1.982.123l2.383-1.854a1.5,1.5,0,0,0,.579-1.184v-1.651a10.6,10.6,0,0,1,5.475,0v1.651a1.5,1.5,0,0,0,.579,1.184l2.384,1.854a1.5,1.5,0,0,0,1.981-.123l1.854-1.854a1.5,1.5,0,0,0,.192-1.886Z" transform="translate(-20.226 -124.721)"/></g><rect class="b" width="24" height="24"/></svg>