<svg xmlns="http://www.w3.org/2000/svg" width="24" height="24" viewBox="0 0 24 24"><defs><style>.a{fill:#667178;}.b{fill:rgba(102,113,120,0);}</style></defs><g transform="translate(2 4)"><path class="a" d="M38.96,44.93a10.489,10.489,0,0,0-15.83-2.31,10.993,10.993,0,0,0-2.09,2.31,5.051,5.051,0,0,0,0,6.14,10.489,10.489,0,0,0,15.83,2.31,10.993,10.993,0,0,0,2.09-2.31,5.051,5.051,0,0,0,0-6.14ZM30,53c-3.87,0-7-3.46-7-5s3.13-5,7-5,7,3.46,7,5S33.87,53,30,53Z" transform="translate(-20 -40)"/><circle class="a" cx="3" cy="3" r="3" transform="translate(7 5)"/></g><rect class="b" width="24" height="24"/></svg>