<svg xmlns="http://www.w3.org/2000/svg" width="24" height="24" viewBox="0 0 24 24"><defs><style>.a{fill:#cc9e1f;stroke:rgba(0,0,0,0);stroke-miterlimit:10;}.b{fill:none;}</style></defs><path class="a" d="M66-98.75v-15A2.25,2.25,0,0,1,68.25-116a2.25,2.25,0,0,1,2.25,2.25v15a2.25,2.25,0,0,1-2.25,2.25A2.251,2.251,0,0,1,66-98.75Zm-8,0v-15A2.25,2.25,0,0,1,60.25-116a2.25,2.25,0,0,1,2.25,2.25v15a2.25,2.25,0,0,1-2.25,2.25A2.251,2.251,0,0,1,58-98.75Z" transform="translate(-52.25 118.25)"/><rect class="b" width="24" height="24"/></svg>