<svg xmlns="http://www.w3.org/2000/svg" width="24" height="24" viewBox="0 0 24 24"><defs><style>.a{fill:#fff;}.b{fill:none;}</style></defs><path class="a" d="M42.686,37.512l-4-.5a1.5,1.5,0,0,0-1.247.428L35.618,39.26a14.6,14.6,0,0,1-5.879-5.879l1.821-1.821a1.5,1.5,0,0,0,.428-1.247l-.5-4A1.5,1.5,0,0,0,30,25H26.5A1.5,1.5,0,0,0,25,26.5q0,.229.006.456c0,.12.008.24.014.36,0,.029,0,.058,0,.087a17.324,17.324,0,0,0,1.524,6.3c.013.029.029.056.044.083a17.61,17.61,0,0,0,8.621,8.621c.028.015.055.031.083.044a17.324,17.324,0,0,0,6.3,1.524l.087,0c.12.005.239.011.359.014q.227.006.456.006A1.5,1.5,0,0,0,44,42.5V39A1.5,1.5,0,0,0,42.686,37.512Z" transform="translate(-22.5 -22.5)"/><rect class="b" width="24" height="24"/></svg>