<svg xmlns="http://www.w3.org/2000/svg" width="64" height="64" viewBox="0 0 64 64"><defs><style>.a{fill:#7f888e;}.b{fill:none;}</style></defs><path class="a" d="M46.667,20A26.667,26.667,0,1,0,73.333,46.667,26.666,26.666,0,0,0,46.667,20Zm0,8a8,8,0,1,1-8,8A8,8,0,0,1,46.667,28Zm0,40A21.321,21.321,0,0,1,28.427,57.737,10.242,10.242,0,0,1,33.333,52c2.63-1.315,6.733-2.667,13.333-2.667S57.019,50.509,60,52a10.308,10.308,0,0,1,4.872,5.79A21.319,21.319,0,0,1,46.667,68Z" transform="translate(-14.667 -14.667)"/><rect class="b" width="64" height="64"/></svg>