<svg xmlns="http://www.w3.org/2000/svg" width="24" height="24" viewBox="0 0 24 24"><defs><style>.a{fill:#667178;}.b{fill:none;}</style></defs><path class="a" d="M38.5,50H26.6a1.5,1.5,0,0,0-1.1.48l-5.1,5.5a1.5,1.5,0,0,0,0,2.04l5.1,5.5a1.5,1.5,0,0,0,1.1.48H38.5A1.5,1.5,0,0,0,40,62.5v-11A1.5,1.5,0,0,0,38.5,50Zm-2.439,8.689a1.5,1.5,0,1,1-2.121,2.121L32.25,59.121l-1.689,1.689a1.5,1.5,0,0,1-2.121-2.121L30.129,57,28.44,55.311a1.5,1.5,0,0,1,2.121-2.121l1.689,1.689,1.689-1.689a1.5,1.5,0,1,1,2.121,2.121L34.372,57Z" transform="translate(-18 -45)"/><rect class="b" width="24" height="24"/></svg>