<svg xmlns="http://www.w3.org/2000/svg" width="24" height="24" viewBox="0 0 24 24"><defs><style>.a{fill:#99a0a5;}.b{fill:none;}</style></defs><circle class="a" cx="4" cy="4" r="4" transform="translate(6 2)"/><path class="a" d="M28,125a6.974,6.974,0,0,1,1.933-4.827A12.45,12.45,0,0,0,28,120c-2.67,0-8,1.34-8,4v2h8.072A7.048,7.048,0,0,1,28,125Z" transform="translate(-18 -108)"/><g transform="translate(12 12)"><path class="a" d="M127.757,120.829a5,5,0,0,0-6.928,6.928Z" transform="translate(-120 -120)"/><path class="a" d="M149.361,142.433l-6.928,6.928a5,5,0,0,0,6.928-6.928Z" transform="translate(-140.19 -140.19)"/></g><rect class="b" width="24" height="24"/></svg>