<svg xmlns="http://www.w3.org/2000/svg" width="24" height="24" viewBox="0 0 24 24"><defs><style>.a{fill:#99a0a5;}.b{fill:none;}</style></defs><path class="a" d="M1863.622-5038.5l3.939-3.939a1.5,1.5,0,0,0,0-2.121,1.5,1.5,0,0,0-2.121,0l-3.939,3.939-3.939-3.939a1.5,1.5,0,0,0-2.121,0,1.5,1.5,0,0,0,0,2.121l3.939,3.939-3.939,3.939a1.5,1.5,0,0,0,0,2.121,1.5,1.5,0,0,0,1.061.439,1.5,1.5,0,0,0,1.061-.439l3.939-3.939,3.939,3.939a1.5,1.5,0,0,0,1.061.439,1.5,1.5,0,0,0,1.061-.439,1.5,1.5,0,0,0,0-2.121Z" transform="translate(-1849.501 5050.5)"/><rect class="b" width="24" height="24"/></svg>