<svg xmlns="http://www.w3.org/2000/svg" width="24" height="24" viewBox="0 0 24 24"><defs><style>.a{fill:#cc9e1f;}.b{fill:none;}</style></defs><g transform="translate(2 1.894)"><path class="a" d="M20.446,24.878l5.99,4.1A1,1,0,0,0,28,28.15v-2.6H38.5a1.5,1.5,0,0,0,0-3H28v-2.6a1,1,0,0,0-1.565-.825l-5.99,4.1A1,1,0,0,0,20.446,24.878Z" transform="translate(-20 -18.939)"/><path class="a" d="M39.555,123.213l-5.99-4.1a1,1,0,0,0-1.565.825v2.6H21.5a1.5,1.5,0,0,0,0,3H32v2.6a1,1,0,0,0,1.565.825l5.99-4.1A1,1,0,0,0,39.555,123.213Z" transform="translate(-20 -108.939)"/></g><rect class="b" width="24" height="24"/></svg>